<svg width="164" height="43" viewBox="0 0 164 43" fill="none" xmlns="http://www.w3.org/2000/svg">
<path d="M34.7971 42.776H7.97888C3.57173 42.776 0 39.2043 0 34.7971V7.97889C0 3.57174 3.57173 0 7.97888 0H34.7971C39.2043 0 42.776 3.57174 42.776 7.97889V34.7971C42.776 39.2043 39.2043 42.776 34.7971 42.776Z" fill="#292F36"/>
<path d="M29.0944 21.7815C29.8572 22.738 30.2446 23.8519 30.2446 25.1111C30.2446 26.9635 29.6271 28.4164 28.3922 29.4456C27.1572 30.4747 25.3895 31.0075 23.0891 31.0075H13.0398V9.39545H22.8469C25.0505 9.39545 26.7456 9.87975 27.9442 10.8362C29.1429 11.7927 29.7482 13.1609 29.7482 14.9286C29.7482 16.2362 29.3971 17.3138 28.707 18.1855C28.0169 19.0573 27.1088 19.6142 25.9828 19.8806C27.3025 20.1954 28.3316 20.825 29.0944 21.7815ZM18.2582 18.234H21.6846C23.5007 18.234 24.4088 17.4591 24.4088 15.9093C24.4088 14.3596 23.4765 13.5847 21.6241 13.5847H18.2582V18.234ZM24.8931 24.3846C24.8931 23.6097 24.6388 23.0044 24.1303 22.5685C23.6218 22.1326 22.8953 21.9147 21.9631 21.9147H18.2703V26.7698H21.9994C23.9245 26.7577 24.8931 25.9707 24.8931 24.3846Z" fill="white"/>
<path d="M67.5603 31.0075L62.8867 22.8469H61.7002V31.0075H56.4697V9.39545H65.393C67.1002 9.39545 68.5531 9.68603 69.7275 10.2793C70.9141 10.8726 71.7979 11.6838 72.3912 12.7129C72.9844 13.7421 73.275 14.9165 73.275 16.2483C73.275 17.8223 72.8391 19.1541 71.9795 20.2559C71.1078 21.3577 69.8607 22.1084 68.202 22.5201L73.3356 31.0196H67.5603V31.0075ZM61.7002 19.2752H64.9329C65.9742 19.2752 66.7369 19.0452 67.2212 18.5851C67.7056 18.125 67.9598 17.447 67.9598 16.551C67.9598 15.6914 67.7055 15.0255 67.2091 14.5291C66.7127 14.0447 65.9499 13.7905 64.9329 13.7905H61.7002V19.2752Z" fill="#292F36"/>
<path d="M96.9332 27.0725H88.8332L87.4893 31.0195H81.9924L89.9108 9.56494H95.9282L103.847 31.0195H98.2892L96.9332 27.0725ZM95.5892 23.0891L92.9014 15.1465L90.1772 23.0891H95.5892Z" fill="#292F36"/>
<path d="M132.699 31.0075H127.468L118.727 17.7376V31.0075H113.496V9.39545H118.727L127.468 22.7864V9.39545H132.699V31.0075Z" fill="#292F36"/>
<path d="M162.023 25.8012C161.115 27.4358 159.808 28.7192 158.113 29.6393C156.405 30.5595 154.408 31.0196 152.107 31.0196H143.947V9.40759H152.107C154.432 9.40759 156.442 9.85557 158.125 10.7515C159.82 11.6475 161.115 12.9067 162.023 14.5412C162.931 16.1757 163.379 18.0403 163.379 20.1712C163.379 22.2779 162.919 24.1546 162.023 25.8012ZM156.393 24.7115C157.519 23.634 158.088 22.1084 158.088 20.1591C158.088 18.1977 157.519 16.6842 156.393 15.6067C155.267 14.5291 153.681 13.9843 151.635 13.9843H149.165V26.334H151.635C153.681 26.334 155.267 25.8012 156.393 24.7115Z" fill="#292F36"/>
</svg>
