<svg width="103" height="103" viewBox="0 0 103 103" fill="none" xmlns="http://www.w3.org/2000/svg">
<path d="M51.1598 101.606C79.0205 101.606 101.606 79.0206 101.606 51.16C101.606 23.2993 79.0205 0.713745 51.1598 0.713745C23.2992 0.713745 0.713623 23.2993 0.713623 51.16C0.713623 79.0206 23.2992 101.606 51.1598 101.606Z" fill="white"/>
<path d="M51.1599 102.32C22.9535 102.32 0 79.3664 0 51.1599C0 22.9535 22.9535 0 51.1599 0C79.3664 0 102.32 22.9535 102.32 51.1599C102.32 79.3664 79.3664 102.32 51.1599 102.32ZM51.1599 1.42745C23.7386 1.42745 1.42745 23.7386 1.42745 51.1599C1.42745 78.5813 23.7386 100.892 51.1599 100.892C78.5813 100.892 100.892 78.5813 100.892 51.1599C100.892 23.7386 78.5813 1.42745 51.1599 1.42745Z" fill="#292F36"/>
<path d="M58.3543 5.83827C58.6969 5.86682 58.9967 5.88109 59.2394 5.88109L59.2108 6.10949C58.8111 6.16658 58.4685 6.46635 58.1973 7.03733L54.8 13.832L54.7001 13.8177L54.6144 13.8035L52.459 6.22368C52.3162 5.72407 52.0735 5.45286 51.731 5.41003L51.7595 5.18164C52.0735 5.23874 52.4875 5.28156 53.0014 5.33866C53.6723 5.39576 54.1719 5.43858 54.5002 5.43858L54.4717 5.66697C54.1719 5.6527 53.9578 5.66697 53.8293 5.7098C53.7008 5.75262 53.6295 5.86682 53.6152 6.00956C53.6009 6.13803 53.6295 6.3236 53.7008 6.56627L55.2853 12.3617L57.6406 7.62259C57.8405 7.23717 57.9404 6.92313 57.9689 6.69474C57.9975 6.45207 57.9261 6.26651 57.7691 6.13803C57.6121 6.00956 57.3551 5.93819 57.0125 5.89537L57.0411 5.66697C57.455 5.73835 57.8976 5.79545 58.3543 5.83827Z" fill="#292F36"/>
<path d="M67.9466 8.85028C67.8039 8.85028 67.6897 8.90737 67.6041 9.02157C67.5184 9.13577 67.4185 9.32134 67.3186 9.59255L65.2773 15.0169C65.1774 15.2881 65.1203 15.5022 65.1203 15.645C65.1203 15.7877 65.1631 15.9019 65.263 15.9875C65.363 16.0732 65.5485 16.1731 65.8055 16.2873L65.7198 16.5014C65.3915 16.3587 64.9347 16.1731 64.3495 15.9447C63.7214 15.7021 63.2503 15.545 62.9363 15.4451L63.0219 15.231C63.2931 15.3166 63.493 15.3595 63.6215 15.3595C63.7499 15.3595 63.8784 15.3024 63.964 15.1882C64.0497 15.074 64.1496 14.8884 64.2495 14.6172L66.2908 9.19286C66.3907 8.92165 66.4478 8.70753 66.4478 8.56479C66.4478 8.42204 66.405 8.30784 66.3051 8.2222C66.2051 8.13655 66.0196 8.03663 65.7626 7.92243L65.8483 7.70831C66.1481 7.83678 66.6048 8.02235 67.2329 8.26502C67.8182 8.49341 68.2892 8.65043 68.6318 8.75035L68.5462 8.96447C68.2892 8.87883 68.0894 8.836 67.9466 8.85028Z" fill="#292F36"/>
<path d="M80.651 16.4014C80.5083 16.3729 80.3655 16.4157 80.2371 16.5014C80.1086 16.587 79.9516 16.7583 79.7803 17.001L75.6407 22.6109L75.4266 22.4538L75.9833 13.4323L72.3147 18.3999C72.1434 18.6425 72.0292 18.8424 71.9721 18.9994C71.915 19.1564 71.9436 19.2992 72.0149 19.4419C72.0863 19.5847 72.2576 19.7417 72.5003 19.9415L72.3575 20.1271C72.1434 19.9415 71.8294 19.6989 71.4154 19.3848C71.0443 19.1136 70.7445 18.8995 70.5161 18.771L70.6589 18.5854C70.8872 18.7425 71.0728 18.8281 71.2156 18.8424C71.3583 18.8709 71.5011 18.8281 71.6295 18.7425C71.758 18.6425 71.915 18.4855 72.0863 18.2429L75.4551 13.675C75.6264 13.4323 75.7406 13.2468 75.7834 13.1183C75.8262 12.9898 75.812 12.8614 75.7406 12.7472C75.6692 12.633 75.5265 12.4902 75.2981 12.3046L75.4408 12.1191C75.6264 12.2904 75.9119 12.5188 76.2973 12.79C76.5828 13.0041 76.8255 13.1754 77.0538 13.3039L76.5971 20.8694L79.5662 16.844C79.7375 16.6013 79.8659 16.4014 79.9088 16.2444C79.9516 16.0874 79.9373 15.9447 79.8659 15.8019C79.7946 15.6592 79.6233 15.4879 79.3806 15.3023L79.5233 15.1167C79.7375 15.3023 80.0515 15.545 80.4655 15.859C80.8366 16.1302 81.1364 16.3443 81.3648 16.4728L81.222 16.6584C80.9793 16.5156 80.7938 16.4157 80.651 16.4014Z" fill="#292F36"/>
<path d="M85.433 22.8392C85.8042 22.568 86.1896 22.2682 86.6035 21.8971C86.9604 22.4395 87.5885 23.3388 88.4878 24.6093C89.3871 25.8654 90.0294 26.7504 90.4149 27.2643C89.9295 27.5498 89.5156 27.8068 89.1444 28.0637C88.8304 28.2921 88.5734 28.4919 88.3879 28.6489L88.2309 28.4348C88.6876 28.0351 89.0017 27.7068 89.1872 27.4642C89.3728 27.2215 89.4442 26.9646 89.4299 26.6933C89.4156 26.4221 89.2443 26.0938 88.9731 25.6941L88.602 25.1802L83.1919 29.0344C82.935 29.2199 82.7494 29.3912 82.6638 29.5197C82.5781 29.6482 82.5496 29.8052 82.6067 29.9765C82.6495 30.1335 82.778 30.3619 82.9635 30.6474L82.778 30.7901C82.5639 30.4475 82.2355 29.9622 81.8073 29.377C81.3505 28.7346 81.0079 28.2778 80.7795 27.9923L80.9651 27.8496C81.1792 28.1208 81.3505 28.3064 81.4933 28.4063C81.636 28.5062 81.7788 28.5348 81.9358 28.4919C82.0928 28.4491 82.3069 28.3349 82.5639 28.1493L87.9739 24.2952L87.6028 23.7813C87.3173 23.3816 87.0603 23.139 86.8177 23.0248C86.575 22.9106 86.3038 22.8963 86.0183 22.9962C85.7328 23.0962 85.3188 23.2817 84.7907 23.5815L84.6337 23.3674C84.8478 23.2532 85.1047 23.0819 85.433 22.8392Z" fill="#292F36"/>
<path d="M88.1736 42.6524L87.9452 42.7237C87.8596 42.4097 87.7454 42.01 87.5741 41.5247C87.36 40.8966 87.1887 40.4255 87.0602 40.1115L87.2886 40.0401C87.3885 40.3113 87.5027 40.5112 87.5884 40.6111C87.6883 40.711 87.8168 40.7396 87.9595 40.6825C88.088 40.6396 88.245 40.5397 88.4306 40.3827L90.015 39.0837L89.1157 36.4144L87.7882 36.3573C87.36 36.3287 87.0317 36.3573 86.8033 36.4429C86.5749 36.5286 86.4321 36.657 86.375 36.8426C86.3322 37.0282 86.3608 37.2994 86.4607 37.6277L86.2323 37.6991C86.1181 37.2709 85.9753 36.8426 85.8326 36.4144C85.7184 36.0861 85.6185 35.8149 85.5186 35.6007L85.7469 35.5294C85.9468 35.8719 86.375 36.0575 87.0031 36.0718L94.5972 36.4144L94.6543 36.5857L88.6019 41.6246C88.2307 41.9814 88.088 42.3098 88.1736 42.6524ZM93.1269 36.5857L89.387 36.4287L90.2292 38.941L93.1269 36.5857Z" fill="#292F36"/>
<path d="M89.2159 53.5724C89.3586 53.5153 89.43 53.4439 89.43 53.344C89.43 53.2869 89.4157 53.2441 89.3872 53.2013C89.3586 53.1584 89.3015 53.0728 89.2159 52.9586C89.0018 52.6874 88.8447 52.4019 88.7305 52.1164C88.6163 51.8309 88.5592 51.5026 88.5592 51.1457C88.545 50.3464 88.702 49.6612 89.016 49.0759C89.3443 48.4907 89.8011 48.0481 90.4292 47.7341C91.043 47.4201 91.7853 47.263 92.656 47.2488C93.5553 47.2345 94.3404 47.3772 95.0113 47.6913C95.6822 48.0053 96.2104 48.4336 96.5815 49.0045C96.9527 49.5755 97.1525 50.2179 97.1525 50.9316C97.1525 51.2456 97.124 51.5311 97.0669 51.7738C97.0098 52.0165 96.9241 52.2306 96.8242 52.4162C96.7243 52.6017 96.5958 52.8158 96.4245 53.0442C96.3531 53.1442 96.3103 53.2298 96.3103 53.2869C96.3103 53.4297 96.553 53.5296 97.024 53.5724V53.8436C96.5244 53.8151 95.6251 53.8151 94.3404 53.8436V53.5724C94.7544 53.501 95.097 53.4154 95.3682 53.3297C95.6394 53.2441 95.8678 53.1156 96.0677 52.9586C96.3389 52.7302 96.5673 52.4304 96.7243 52.0593C96.8813 51.6882 96.9527 51.317 96.9527 50.9173C96.9384 50.4034 96.7671 49.9609 96.4245 49.5755C96.0819 49.1901 95.5966 48.9046 94.9828 48.6905C94.3547 48.4907 93.641 48.3907 92.813 48.405C91.8709 48.4193 91.1144 48.5335 90.5149 48.7476C89.9153 48.9617 89.4871 49.2758 89.2016 49.6897C88.9161 50.1037 88.7876 50.6318 88.8019 51.2742C88.8162 51.7453 88.9447 52.1449 89.1873 52.4875C89.2872 52.6303 89.3729 52.7159 89.4728 52.7587C89.5585 52.8016 89.6869 52.8158 89.8439 52.8158L90.9716 52.8016C91.3 52.8016 91.5283 52.7587 91.6854 52.7016C91.8281 52.6445 91.9423 52.5304 91.9851 52.3591C92.0422 52.202 92.0708 51.9451 92.0708 51.6025H92.2992C92.2849 51.9879 92.2706 52.5304 92.2849 53.2584C92.2992 53.8008 92.3134 54.2147 92.342 54.4717H92.1136C92.0993 54.2861 92.0565 54.1577 92.0137 54.0863C91.9709 54.0149 91.8709 53.9578 91.7425 53.9293C91.614 53.9007 91.3999 53.8864 91.1001 53.9007L88.7876 53.9435V53.7151C88.9161 53.658 89.0731 53.6295 89.2159 53.5724Z" fill="#292F36"/>
<path d="M87.517 65.72C87.1031 65.5915 86.6177 65.463 86.061 65.3488C86.2466 64.8492 86.5178 64.007 86.9032 62.8079C87.36 61.3805 87.6883 60.2956 87.8882 59.5676L88.1166 59.639C88.0452 59.9102 88.0166 60.1101 88.0166 60.2528C88.0309 60.3955 88.088 60.4955 88.2022 60.5811C88.3164 60.6668 88.5163 60.7524 88.7875 60.8381L94.3117 62.5796C94.5972 62.6652 94.7971 62.708 94.9398 62.708C95.0825 62.708 95.1967 62.6509 95.2824 62.5367C95.368 62.4225 95.4537 62.237 95.5536 61.98L95.782 62.0514C95.525 62.7794 95.1825 63.85 94.7257 65.2774C94.3831 66.3623 94.1404 67.1474 94.0262 67.6185C93.5552 67.4186 93.1269 67.2473 92.7272 67.1331C92.4417 67.0475 92.1991 66.9761 92.0278 66.9476L92.1134 66.6906C92.613 66.7905 92.9985 66.8334 93.2554 66.8334C93.5123 66.8334 93.7265 66.7477 93.8978 66.5764C94.069 66.4194 94.2118 66.1339 94.3403 65.7485L94.6258 64.8207C94.7114 64.5494 94.7542 64.3496 94.74 64.2211C94.7257 64.0927 94.6829 63.9785 94.5687 63.8928C94.4545 63.8072 94.2689 63.7215 93.9834 63.6359L91.3569 62.8079L91.1285 63.5502C91.0143 63.9214 91.0428 64.2069 91.2284 64.4067C91.414 64.6065 91.6138 64.7493 91.8422 64.8492C92.0706 64.9491 92.2134 65.0205 92.2705 65.049L92.1848 65.306C91.8279 65.1632 91.4854 65.0348 91.1428 64.9349L90.6146 64.7778C90.2435 64.6636 89.701 64.5066 89.0159 64.3496L89.1015 64.0927C89.1586 64.1069 89.3442 64.1355 89.6582 64.2069C89.9723 64.2639 90.2435 64.2354 90.4576 64.1212C90.6717 64.007 90.8145 63.7929 90.9144 63.4931L91.1428 62.7508L88.4592 61.9087C88.1737 61.823 87.9738 61.7802 87.8311 61.7802C87.6883 61.7802 87.5741 61.8373 87.5028 61.9515C87.4171 62.0657 87.3315 62.2512 87.2458 62.5225L86.9889 63.3361C86.8461 63.8072 86.789 64.1783 86.8461 64.4495C86.889 64.735 87.0317 64.9634 87.2744 65.1632C87.517 65.3488 87.8882 65.5629 88.3878 65.7913L88.3021 66.0483C88.1308 65.9198 87.8596 65.8342 87.517 65.72Z" fill="#292F36"/>
<path d="M83.4489 83.2348C83.506 83.1064 83.4918 82.9779 83.4347 82.8494C83.3776 82.7209 83.2348 82.5639 83.0207 82.3498L78.824 78.3387C78.6099 78.1388 78.4386 78.0104 78.3101 77.9533C78.1816 77.8962 78.0532 77.8962 77.9247 77.9533C77.7962 78.0104 77.6392 78.1388 77.4394 78.3387L77.2681 78.1816C77.5393 77.939 77.8819 77.5821 78.3244 77.1396C78.7812 76.6543 79.1238 76.2831 79.3379 76.0405L79.5092 76.1975C79.3236 76.4116 79.2094 76.5829 79.1523 76.6971C79.0952 76.8256 79.1095 76.954 79.1666 77.0825C79.2237 77.211 79.3664 77.368 79.5805 77.5821L83.7773 81.5933C83.9914 81.7931 84.1627 81.9216 84.2911 81.9787C84.4196 82.0358 84.5481 82.0358 84.6765 81.9787C84.805 81.9216 84.962 81.7931 85.1619 81.5933L85.3332 81.7503C85.0905 81.9644 84.7336 82.3213 84.2769 82.8066C83.8344 83.2634 83.506 83.6345 83.2776 83.9057L83.1064 83.7487C83.2776 83.5346 83.3918 83.3633 83.4489 83.2348Z" fill="#292F36"/>
<path d="M71.5582 91.9422C71.6438 91.8138 71.6581 91.6853 71.6295 91.5283C71.601 91.3713 71.5011 91.1714 71.344 90.9002L67.804 84.8906L68.0323 84.7479L76.1117 88.7876L72.9856 83.4774C72.8286 83.2205 72.7001 83.0349 72.5717 82.935C72.4432 82.8351 72.3004 82.7923 72.1434 82.8065C71.9864 82.8208 71.7723 82.9065 71.5011 83.0492L71.3726 82.8494C71.6295 82.7352 71.9721 82.5353 72.4146 82.2784C72.8143 82.0357 73.1141 81.8501 73.3282 81.6931L73.4424 81.893C73.214 82.0357 73.057 82.1784 72.9856 82.3069C72.9 82.4354 72.8857 82.5639 72.9142 82.7209C72.9428 82.8779 73.0427 83.0777 73.1997 83.349L76.0832 88.2451C76.2259 88.5021 76.3544 88.6734 76.4686 88.759C76.5828 88.8447 76.697 88.8875 76.8397 88.8589C76.9682 88.8304 77.168 88.759 77.4107 88.6305L77.5249 88.8304C77.2965 88.9446 76.9825 89.1159 76.5685 89.3585C76.2688 89.5298 76.0118 89.7011 75.7977 89.8439L69.0173 86.4608L71.5582 90.7717C71.7152 91.0287 71.8436 91.2142 71.9721 91.3142C72.0863 91.4141 72.2291 91.4569 72.4004 91.4426C72.5717 91.4283 72.7858 91.3427 73.057 91.2L73.1712 91.3998C72.9142 91.514 72.5716 91.7138 72.1291 91.9708C71.7295 92.2134 71.4297 92.399 71.2156 92.556L71.1014 92.3562C71.3155 92.1992 71.4725 92.0564 71.5582 91.9422Z" fill="#292F36"/>
<path d="M63.7072 93.8123C63.8071 94.2549 63.9356 94.7402 64.1069 95.2541C63.4645 95.3683 62.3939 95.5967 60.8808 95.9107C59.3677 96.239 58.3114 96.4817 57.6833 96.6387C57.612 96.082 57.5406 95.5967 57.4407 95.1542C57.355 94.7687 57.2836 94.4547 57.198 94.2263L57.4549 94.1692C57.6405 94.7545 57.8118 95.1684 57.9688 95.4396C58.1258 95.7109 58.3257 95.8822 58.5826 95.9678C58.8396 96.0534 59.2107 96.0392 59.6818 95.9392L60.2956 95.8108L58.8967 89.3159C58.8253 89.0018 58.7539 88.7734 58.654 88.645C58.5541 88.5165 58.4399 88.4308 58.2686 88.4166C58.0973 88.388 57.8404 88.4166 57.4978 88.4737L57.4549 88.2453C57.8546 88.1882 58.4256 88.074 59.1393 87.917C59.8959 87.7457 60.4669 87.6172 60.8237 87.5173L60.8666 87.7457C60.524 87.8313 60.2956 87.917 60.1528 88.0026C60.0101 88.0883 59.9244 88.2167 59.8959 88.3737C59.8673 88.5308 59.8816 88.7734 59.953 89.0875L61.3519 95.5824L61.9657 95.4539C62.4368 95.354 62.7793 95.2112 62.9792 95.0257C63.179 94.8401 63.2932 94.5974 63.3218 94.2977C63.3503 93.9979 63.336 93.5411 63.2647 92.9416L63.5216 92.8845C63.5644 93.1129 63.6215 93.4269 63.7072 93.8123Z" fill="#292F36"/>
<path d="M44.7648 89.8011C44.8076 89.3586 44.8219 88.859 44.8219 88.3022C45.35 88.3736 46.2351 88.4593 47.4912 88.5735C48.9758 88.7019 50.1035 88.8019 50.8743 88.8447L50.86 89.0731C50.5745 89.0588 50.3747 89.0731 50.2462 89.1159C50.1177 89.1587 50.0178 89.2301 49.9607 89.3586C49.9036 89.487 49.8608 89.7012 49.8323 89.9866L49.3184 95.7678C49.2898 96.0533 49.3041 96.2674 49.3326 96.4102C49.3612 96.5529 49.4468 96.6528 49.5753 96.7099C49.7038 96.767 49.9036 96.8241 50.1748 96.8527L50.1606 97.0811C49.404 96.9954 48.2763 96.8812 46.7918 96.7528C45.6498 96.6528 44.8362 96.5958 44.3508 96.5672C44.4508 96.0676 44.5221 95.6108 44.5507 95.1968C44.5792 94.8971 44.5935 94.6544 44.5792 94.4688L44.8504 94.4974C44.8647 95.0113 44.8933 95.3824 44.9646 95.6394C45.0217 95.8963 45.1502 96.0819 45.35 96.2103C45.5356 96.3388 45.8497 96.4245 46.2493 96.453L47.22 96.5386C47.5055 96.5672 47.7053 96.5529 47.8338 96.5244C47.9623 96.4958 48.0622 96.4102 48.1193 96.2817C48.1764 96.1532 48.2192 95.9391 48.2478 95.6536L48.4904 92.9129L47.7196 92.8415C47.3342 92.813 47.063 92.8986 46.906 93.127C46.7632 93.3554 46.649 93.5838 46.6062 93.8265C46.5491 94.0692 46.5206 94.2262 46.5063 94.2975L46.2351 94.269C46.2922 93.8836 46.335 93.5267 46.3778 93.1699L46.4206 92.6132C46.4492 92.2135 46.4777 91.671 46.5063 90.9573L46.7775 90.9859C46.7775 91.043 46.7918 91.2285 46.7918 91.5568C46.806 91.8852 46.8774 92.1421 47.0487 92.3134C47.2057 92.499 47.4484 92.5989 47.7624 92.6274L48.5333 92.6988L48.7759 89.901C48.8045 89.6155 48.7902 89.4014 48.7617 89.2586C48.7331 89.1302 48.6475 89.0302 48.519 88.9732C48.3905 88.9161 48.1907 88.8732 47.9195 88.8447L47.063 88.7733C46.5777 88.7305 46.2065 88.759 45.9353 88.8732C45.6784 88.9731 45.4785 89.173 45.3358 89.4442C45.193 89.7154 45.0788 90.1294 44.9646 90.6718L44.6934 90.6433C44.6934 90.4292 44.722 90.1437 44.7648 89.8011Z" fill="#292F36"/>
<path d="M33.5308 84.5052C33.7449 84.4624 33.9875 84.5052 34.2445 84.6194C34.5443 84.7479 34.7441 84.9335 34.8583 85.1761C34.9725 85.4331 34.9868 85.7899 34.9154 86.261L34.7013 87.4315C34.6299 87.8455 34.5871 88.1595 34.5728 88.4022C34.5585 88.6306 34.6156 88.8447 34.7155 89.0303C34.8155 89.2158 35.001 89.3586 35.2723 89.4728L36.3 89.901L37.3421 87.4172C37.4563 87.146 37.5134 86.9462 37.5276 86.8034C37.5419 86.6607 37.4848 86.5465 37.3849 86.4466C37.285 86.3467 37.1137 86.2467 36.8567 86.1325L36.9424 85.9184C37.2707 86.0754 37.7132 86.2753 38.2985 86.518C38.9123 86.7749 39.3833 86.9605 39.6974 87.0604L39.6117 87.2745C39.3405 87.1746 39.1407 87.1318 39.0122 87.1175C38.8694 87.1175 38.7552 87.1603 38.6696 87.2745C38.5697 87.3744 38.4698 87.56 38.3556 87.8312L36.1145 93.1842C36.0003 93.4554 35.9432 93.6552 35.9289 93.798C35.9146 93.9407 35.9717 94.0549 36.0716 94.1548C36.1716 94.2547 36.3428 94.3547 36.5998 94.4831L36.5141 94.6973C36.2144 94.5545 35.7861 94.3547 35.2152 94.112C34.9297 93.9978 34.6299 93.8693 34.2873 93.7266C33.9447 93.5839 33.7163 93.4982 33.5879 93.4411C33.0312 93.1984 32.5886 92.9272 32.2603 92.5989C31.932 92.2706 31.7464 91.928 31.6608 91.5569C31.5752 91.1857 31.618 90.8289 31.775 90.472C31.8892 90.1865 32.0748 89.9296 32.3317 89.7012C32.5886 89.4728 32.917 89.3015 33.3166 89.2158C33.7163 89.1302 34.2017 89.1445 34.7298 89.2729L34.6014 89.2016C34.3016 89.016 34.0732 88.8304 33.9305 88.6306C33.7877 88.445 33.6878 88.2309 33.6592 88.0025C33.6164 87.7741 33.6307 87.4886 33.6878 87.146L33.8876 85.9327C33.9304 85.69 33.959 85.5045 33.959 85.3617C33.959 85.219 33.9447 85.1048 33.9019 85.0191C33.8591 84.9335 33.7877 84.8621 33.6878 84.8336C33.5736 84.7765 33.4594 84.7765 33.3595 84.805C33.2595 84.8336 33.1168 84.9049 32.9312 85.0048L32.817 84.8193C33.074 84.6623 33.3166 84.5481 33.5308 84.5052ZM34.2445 89.587C33.9019 89.6298 33.6307 89.7583 33.4166 89.9724C33.2024 90.1865 33.0169 90.472 32.8599 90.8431C32.6172 91.4284 32.5601 91.9423 32.7171 92.3562C32.8741 92.7702 33.2595 93.1128 33.9019 93.384C34.1303 93.4839 34.3016 93.5268 34.4443 93.5125C34.5728 93.5125 34.687 93.4554 34.7869 93.3412C34.8868 93.227 34.9868 93.0414 35.0867 92.7845L36.2001 90.1294L35.4721 89.8296C35.001 89.6298 34.5871 89.5441 34.2445 89.587Z" fill="#292F36"/>
<path d="M22.3966 86.4466C22.5251 86.4894 22.6535 86.4609 22.7677 86.3895C22.8819 86.3181 23.039 86.1611 23.2245 85.9327L26.8074 81.3649C26.993 81.1365 27.1072 80.9509 27.15 80.8225C27.1928 80.694 27.1786 80.5655 27.1072 80.4513C27.0358 80.3371 26.8931 80.1801 26.679 79.9945L26.8217 79.809C27.0929 80.0516 27.4641 80.3657 27.9637 80.7511C28.4918 81.165 28.8915 81.4648 29.1627 81.6504L29.02 81.8359C28.7916 81.6647 28.606 81.5647 28.4776 81.5362C28.3491 81.4934 28.2206 81.5076 28.1064 81.5933C27.9922 81.6646 27.8352 81.8217 27.6496 82.0501L24.0667 86.6179C23.8812 86.8463 23.767 87.0319 23.7241 87.1603C23.6813 87.2888 23.6956 87.4173 23.767 87.5315C23.8383 87.6457 23.9811 87.8027 24.1952 87.9883L24.0524 88.1738C23.8098 87.9597 23.4244 87.6457 22.8962 87.2174C22.3966 86.832 21.9969 86.5323 21.7114 86.3324L21.8542 86.1469C22.0968 86.3039 22.2681 86.4038 22.3966 86.4466Z" fill="#292F36"/>
<path d="M13.1754 76.2832C13.1183 75.6409 13.261 74.9985 13.5893 74.3847C13.9319 73.7566 14.4458 73.1999 15.1595 72.6717C15.859 72.1721 16.5584 71.8438 17.2864 71.7154C18.0144 71.5869 18.6853 71.6297 19.3134 71.8724C19.9415 72.115 20.4697 72.529 20.8836 73.1143C21.3261 73.7138 21.5688 74.3419 21.6259 74.9842C21.683 75.6266 21.5402 76.2689 21.2119 76.8827C20.8693 77.5108 20.3555 78.0675 19.6417 78.5957C18.9423 79.0953 18.2428 79.4236 17.5148 79.5521C16.8011 79.6805 16.1159 79.6377 15.4878 79.3951C14.8598 79.1524 14.3316 78.7384 13.9176 78.1674C13.4751 77.5536 13.2325 76.9256 13.1754 76.2832ZM15.3165 78.8241C15.8162 78.924 16.3871 78.8812 17.0152 78.6813C17.6433 78.4815 18.2714 78.1532 18.928 77.6678C19.5846 77.1968 20.0985 76.6829 20.4554 76.1405C20.8265 75.598 21.0264 75.0556 21.0549 74.5417C21.0977 74.0278 20.9693 73.571 20.698 73.1856C20.3983 72.7859 20.0129 72.529 19.499 72.4291C18.9994 72.3292 18.4284 72.372 17.8003 72.5718C17.1722 72.7717 16.5442 73.1 15.8875 73.571C15.2309 74.0421 14.717 74.556 14.3602 75.1127C13.989 75.6551 13.7892 76.1833 13.7463 76.7114C13.7035 77.2253 13.832 77.6821 14.1032 78.0675C14.403 78.4672 14.8027 78.7242 15.3165 78.8241Z" fill="#292F36"/>
<path d="M14.2745 59.0966C14.4458 59.2251 14.5742 59.4392 14.6599 59.7247C14.7598 60.0245 14.7455 60.31 14.6313 60.5526C14.5171 60.8096 14.2459 61.0522 13.832 61.2949L12.7899 61.8801C12.4331 62.0943 12.1618 62.2656 11.9763 62.4083C11.7907 62.5511 11.6622 62.7224 11.5909 62.9222C11.5195 63.122 11.5195 63.3504 11.6051 63.6359L11.9335 64.7065L14.5029 63.9071C14.7884 63.8215 14.9739 63.7358 15.0881 63.6502C15.2023 63.5645 15.2594 63.4504 15.2737 63.3219C15.288 63.1934 15.2451 62.9793 15.1738 62.7081L15.4022 62.6367C15.4878 62.9793 15.6163 63.4646 15.8161 64.0642C16.016 64.7065 16.173 65.1776 16.2872 65.4773L16.0588 65.5487C15.9589 65.2775 15.8732 65.0919 15.7876 64.992C15.7019 64.8921 15.5877 64.8207 15.445 64.8207C15.3022 64.8207 15.0881 64.8493 14.8169 64.9492L9.27839 66.6621C8.9929 66.7478 8.80733 66.8334 8.69313 66.9191C8.57894 67.0047 8.52184 67.1189 8.50756 67.2474C8.49329 67.3901 8.53611 67.59 8.60748 67.8612L8.37909 67.9326C8.30772 67.6185 8.17925 67.1617 7.99368 66.5622C7.90803 66.2767 7.79384 65.9484 7.67964 65.6058C7.56544 65.2632 7.4798 65.0205 7.43697 64.8921C7.2514 64.3068 7.19431 63.7929 7.23713 63.3362C7.27995 62.8794 7.4227 62.5082 7.65109 62.2085C7.87948 61.9087 8.17925 61.7089 8.55039 61.5947C8.83588 61.509 9.14992 61.4805 9.49251 61.5233C9.83509 61.5661 10.1634 61.7089 10.506 61.9658C10.8486 62.2227 11.1341 62.5939 11.3767 63.0935L11.3625 62.9507C11.3196 62.5939 11.3054 62.3084 11.3625 62.0657C11.4196 61.8231 11.5195 61.6232 11.6622 61.4519C11.8193 61.2806 12.0476 61.0951 12.3474 60.9238L13.4037 60.2957C13.6178 60.1815 13.7891 60.0673 13.8891 59.9816C13.989 59.896 14.0746 59.8103 14.1175 59.7247C14.1603 59.639 14.1603 59.5391 14.1317 59.4392C14.0889 59.3107 14.0318 59.2251 13.9462 59.168C13.8605 59.1109 13.7178 59.0395 13.5179 58.9681L13.5893 58.754C13.8748 58.854 14.1175 58.9681 14.2745 59.0966ZM10.8629 62.9222C10.6202 62.6938 10.3347 62.5653 10.0349 62.5368C9.73517 62.5082 9.39258 62.5511 9.00717 62.6795C8.39337 62.8651 7.9794 63.1649 7.75101 63.5503C7.52262 63.9357 7.52262 64.4638 7.72246 65.1062C7.79384 65.3346 7.87948 65.5059 7.96513 65.6058C8.05078 65.7057 8.17925 65.7628 8.32199 65.7628C8.46474 65.7628 8.67886 65.72 8.9358 65.6486L11.6765 64.7922L11.4481 64.0356C11.3054 63.5217 11.1055 63.1506 10.8629 62.9222Z" fill="#292F36"/>
<path d="M13.1753 45.5501C13.7177 45.3074 14.046 44.8506 14.1888 44.1655C14.2316 43.9085 14.2316 43.6516 14.1602 43.4089C14.0889 43.1662 13.9604 42.9521 13.7606 42.7666C13.5607 42.581 13.2895 42.4525 12.9326 42.3954C12.6329 42.3383 12.3617 42.3669 12.1047 42.4668C11.8478 42.5667 11.5908 42.7237 11.3482 42.9379C11.1055 43.152 10.82 43.4375 10.506 43.7943C10.1491 44.194 9.83506 44.5223 9.56384 44.7507C9.29263 44.9934 8.99286 45.1647 8.66455 45.2932C8.33624 45.4216 7.9651 45.4359 7.55114 45.3645C7.1229 45.2789 6.76604 45.1219 6.50909 44.8649C6.25215 44.608 6.06658 44.3082 5.98094 43.9513C5.89529 43.5945 5.89529 43.2233 5.96666 42.8237C6.00949 42.581 6.06658 42.3954 6.13796 42.2241C6.20933 42.0528 6.2807 41.9244 6.36635 41.8244C6.452 41.7245 6.53764 41.6103 6.65184 41.4961C6.79458 41.3391 6.86596 41.2249 6.89451 41.1393C6.90878 41.0679 6.88023 41.0108 6.80886 40.9537C6.73749 40.8966 6.60902 40.8538 6.43772 40.7967L6.48055 40.5397C6.92306 40.6539 7.69388 40.8252 8.82157 41.0393L8.77875 41.2963C8.37906 41.2535 8.00792 41.2677 7.63678 41.3534C7.27992 41.4248 6.96588 41.5818 6.70894 41.8244C6.452 42.0528 6.2807 42.3811 6.20933 42.7808C6.15223 43.0521 6.16651 43.2947 6.23788 43.5374C6.30925 43.7801 6.43772 43.9656 6.60902 44.1226C6.79459 44.2797 7.0087 44.3796 7.26564 44.4367C7.67961 44.5081 8.03647 44.451 8.33624 44.2511C8.636 44.0513 8.92149 43.7943 9.19271 43.4946C9.46392 43.1948 9.63522 42.995 9.73514 42.895C10.1348 42.4668 10.4631 42.1385 10.7344 41.8958C11.0056 41.6531 11.3053 41.4819 11.6337 41.3677C11.962 41.2535 12.3188 41.2392 12.7042 41.3106C13.1753 41.3962 13.5607 41.5818 13.8462 41.853C14.1317 42.1385 14.3173 42.4668 14.4172 42.8665C14.5171 43.2662 14.5171 43.6944 14.4315 44.1512C14.3601 44.5223 14.2744 44.8078 14.146 45.0362C14.0318 45.2646 13.8748 45.4644 13.7035 45.65C13.5607 45.807 13.4893 45.9212 13.4608 46.0069C13.4465 46.0783 13.4751 46.1354 13.5464 46.1925C13.6178 46.2495 13.7463 46.3066 13.9176 46.3495L13.8748 46.6064C13.4608 46.4922 12.5472 46.3066 11.134 46.0497L11.1769 45.7928C11.9762 45.8641 12.6329 45.7928 13.1753 45.5501Z" fill="#292F36"/>
<path d="M10.3489 33.5165C9.94918 33.3024 9.4924 33.1026 8.97852 32.9027C9.29256 32.346 9.82071 31.3754 10.5344 29.9907C11.2482 28.6204 11.7478 27.6497 12.019 27.0645C12.4901 27.3642 12.9183 27.6212 13.3037 27.821C13.6463 28.0066 13.9461 28.135 14.1744 28.235L14.046 28.4776C13.475 28.2492 13.0468 28.1065 12.747 28.0637C12.4472 28.0066 12.176 28.0637 11.9476 28.2064C11.7192 28.3492 11.4908 28.6347 11.2767 29.0629L10.9912 29.6339L16.8866 32.7029C17.1721 32.8599 17.4005 32.9313 17.5575 32.9456C17.7145 32.9598 17.8573 32.917 17.9857 32.8028C18.1142 32.6886 18.257 32.4745 18.4283 32.1747L18.6424 32.2889C18.4283 32.6458 18.157 33.1454 17.8145 33.802C17.4576 34.4872 17.2006 35.0154 17.0436 35.3437L16.8295 35.2295C16.9723 34.9154 17.0722 34.6728 17.0865 34.5158C17.115 34.3445 17.0722 34.2017 16.958 34.0733C16.8438 33.9448 16.6582 33.8163 16.3727 33.6593L10.4773 30.576L10.1776 31.1327C9.94918 31.5609 9.84926 31.9035 9.86354 32.1747C9.87781 32.446 9.99201 32.6886 10.2061 32.9027C10.4202 33.1169 10.7771 33.4023 11.291 33.7307L11.1625 33.9733C10.977 33.8591 10.6915 33.7021 10.3489 33.5165Z" fill="#292F36"/>
<path d="M20.4268 17.1153C20.6694 16.8726 20.8693 16.6442 21.012 16.4729L21.1833 16.6442C21.0977 16.7727 21.0549 16.9582 21.0691 17.1724C21.0834 17.3865 21.1405 17.6862 21.2547 18.0431L22.5537 21.9115L24.0668 23.4103C24.2809 23.6102 24.4379 23.7529 24.5664 23.81C24.6949 23.8671 24.8233 23.8671 24.9518 23.81C25.0803 23.7529 25.2373 23.6244 25.4514 23.4389L25.6227 23.6102C25.3515 23.8528 24.9946 24.1954 24.5521 24.6379C24.0811 25.109 23.7385 25.4801 23.5244 25.7228L23.3531 25.5515C23.5386 25.3374 23.6671 25.1804 23.7242 25.0519C23.7813 24.9234 23.7813 24.795 23.7099 24.6665C23.6528 24.538 23.5101 24.3667 23.3102 24.1669L22.0541 22.925L17.2864 21.5261C17.0009 21.4404 16.7868 21.4119 16.644 21.4262C16.5013 21.4404 16.4014 21.4833 16.33 21.5546L16.1587 21.3833C16.3871 21.1835 16.644 20.9551 16.901 20.6839C17.4291 20.1415 17.8145 19.756 18.0287 19.4991L18.2 19.6704C17.8145 20.0558 17.7289 20.3556 17.943 20.5697C18.0287 20.6553 18.1429 20.7124 18.3141 20.7695L22.3253 22.0114L21.269 18.8567C21.112 18.4 20.9549 18.0859 20.7836 17.9289C20.6266 17.7719 20.4553 17.7291 20.2698 17.7862C20.0842 17.8433 19.8701 17.986 19.6131 18.2287L19.4418 18.0574C19.7844 17.7433 20.0985 17.4293 20.4268 17.1153Z" fill="#292F36"/>
<path d="M29.0628 11.3626C28.9771 11.4625 28.9343 11.591 28.9628 11.7337C28.9914 11.8765 29.0628 12.0763 29.2055 12.3333L31.9605 17.4436C32.1032 17.7005 32.2174 17.8718 32.3316 17.9717C32.4316 18.0716 32.56 18.1002 32.6885 18.0859C32.817 18.0716 33.0168 17.986 33.2595 17.8575L34.016 17.4436C34.4443 17.2152 34.744 16.9725 34.9011 16.7298C35.0581 16.4872 35.1152 16.2159 35.0723 15.8876C35.0295 15.5593 34.9011 15.1454 34.6727 14.6029L34.9153 14.4745C35.0152 14.7028 35.158 14.9883 35.3436 15.3309C35.5577 15.7163 35.8146 16.1446 36.1287 16.6156C35.6576 16.844 34.8582 17.258 33.7591 17.8575C32.4458 18.5712 31.4466 19.1137 30.79 19.4991L30.6758 19.2992C30.9185 19.1565 31.0898 19.028 31.1754 18.9281C31.261 18.8282 31.3039 18.6997 31.2753 18.557C31.2468 18.4142 31.1754 18.2144 31.0327 17.9574L28.2491 12.8472C28.1064 12.5902 27.9922 12.4189 27.878 12.319C27.7781 12.2191 27.6496 12.1905 27.5211 12.2048C27.3784 12.2191 27.1928 12.2905 26.9359 12.4189L26.8359 12.2048C27.1357 12.0763 27.5782 11.8479 28.1635 11.5196C28.7202 11.2199 29.1484 10.9772 29.4482 10.7916L29.5624 10.9915C29.3197 11.1342 29.1627 11.2627 29.0628 11.3626Z" fill="#292F36"/>
<path d="M46.4491 12.276C46.5348 12.7043 46.6633 13.1896 46.8203 13.732C46.2921 13.8177 45.4214 13.9747 44.1938 14.2174C42.7235 14.5029 41.6243 14.7313 40.8678 14.9026L40.825 14.6742C41.0962 14.6028 41.296 14.5457 41.4102 14.46C41.5244 14.3887 41.5958 14.2745 41.6101 14.146C41.6243 14.0033 41.6101 13.7891 41.553 13.5037L40.4396 7.80811C40.3825 7.52262 40.3254 7.32278 40.2397 7.19431C40.1541 7.06584 40.0684 6.99446 39.9257 6.98019C39.7972 6.95164 39.5831 6.96591 39.3119 7.00874L39.269 6.78034C40.0256 6.65187 41.139 6.45203 42.595 6.16654C43.7227 5.93815 44.5221 5.78113 44.9789 5.66693C45.0217 6.18081 45.0931 6.6376 45.1644 7.03729C45.2215 7.33705 45.2786 7.56544 45.3357 7.73674L45.0788 7.79384C44.9218 7.3085 44.779 6.95164 44.6505 6.72325C44.5221 6.49485 44.3365 6.35211 44.1224 6.28074C43.894 6.20936 43.5942 6.20936 43.1803 6.29501L42.2239 6.48058C41.9527 6.53768 41.7528 6.59478 41.6386 6.66615C41.5244 6.73752 41.453 6.83744 41.4245 6.98019C41.4102 7.12293 41.4245 7.33705 41.4816 7.62254L42.0098 10.3347L42.7663 10.1777C43.1517 10.1063 43.3801 9.93502 43.4658 9.67808C43.5514 9.42113 43.58 9.17847 43.5657 8.9358C43.5514 8.69313 43.5371 8.53611 43.5371 8.46474L43.7941 8.40764C43.8369 8.79305 43.894 9.14992 43.9654 9.49251L44.0796 10.0349C44.1509 10.4204 44.2794 10.9628 44.465 11.648L44.208 11.7051C44.1938 11.648 44.1367 11.4767 44.0367 11.1626C43.9368 10.8486 43.7941 10.6345 43.58 10.506C43.3658 10.3775 43.1232 10.349 42.8091 10.4061L42.0526 10.5488L42.595 13.3038C42.6521 13.5893 42.7092 13.7891 42.7806 13.9176C42.8519 14.0318 42.9519 14.1032 43.0946 14.1317C43.2231 14.146 43.4372 14.1317 43.7084 14.0746L44.5506 13.9033C45.0217 13.8034 45.3785 13.6749 45.6069 13.5037C45.8353 13.3324 45.9638 13.0897 46.0209 12.7899C46.078 12.4902 46.078 12.0619 46.0352 11.5052L46.2921 11.4481C46.3349 11.6622 46.3778 11.9335 46.4491 12.276Z" fill="#292F36"/>
<path d="M36.8283 66.7905C36.1717 65.9055 35.6007 64.9348 35.1011 63.8642C34.6015 62.7936 34.2018 61.7088 33.9021 60.5954C33.2454 55.6992 33.2312 50.9458 33.845 46.3351C34.4588 41.7244 35.458 37.1851 36.8283 32.7029C37.0567 32.2033 37.5563 31.9606 38.3272 31.9606C39.098 31.9606 39.8545 32.1319 40.6254 32.4745C41.3962 32.8171 42.0243 33.2739 42.5239 33.8449C43.0235 34.4159 43.1377 35.0154 42.8665 35.6292C42.4382 36.5428 42.0243 37.7847 41.6103 39.3263C41.1964 40.8822 40.7824 42.5952 40.4113 44.4651C40.0258 46.3351 39.6975 48.305 39.412 50.3463C39.1265 52.3875 38.9124 54.3574 38.784 56.2274C38.6555 58.0973 38.6269 59.796 38.6983 61.3091C38.7697 62.8222 38.9981 64.0213 39.3835 64.892C41.1821 62.4796 42.8237 59.9816 44.3225 57.3979C45.8213 54.8142 47.2202 52.2019 48.5335 49.5326C49.8467 46.8775 51.1029 44.1939 52.2877 41.4675C53.4725 38.7553 54.643 36.0717 55.7849 33.4309C56.3559 32.0891 56.9269 30.6759 57.4836 29.1914C58.0403 27.6926 58.7683 26.4221 59.6962 25.3515C60.0816 25.0089 60.3813 24.8948 60.5812 25.0089C60.7953 25.1231 60.938 25.3373 61.0094 25.6656C61.0808 25.9939 61.1236 26.3365 61.1236 26.6933C61.1236 27.0502 61.1236 27.3357 61.1236 27.5213C60.8524 29.277 60.624 31.0185 60.4384 32.7457C60.2529 34.473 59.8389 36.1288 59.2394 37.7418C58.2402 40.2684 57.2267 42.7665 56.1703 45.2645C55.114 47.7483 53.9863 50.2035 52.7873 52.6159C51.5882 55.0283 50.275 57.3693 48.8903 59.639C47.4914 61.9229 45.9783 64.0926 44.3225 66.1482C43.0235 67.7897 41.7245 68.6605 40.4541 68.7604C39.1265 68.8746 37.9418 68.2037 36.8283 66.7905Z" fill="#292F36" stroke="white" stroke-miterlimit="10"/>
<path d="M60.467 60.3099C59.6962 59.2393 58.9397 58.1544 58.1974 57.041C57.4551 55.9276 57.084 54.7143 57.084 53.3725C57.084 51.8879 57.5122 50.4747 58.3687 49.1472C59.2252 47.834 60.2101 46.7634 61.3235 45.964C61.7803 45.6642 62.2514 45.4073 62.7224 45.2217C63.1935 45.0361 63.7074 45.0504 64.2498 45.2788C64.4782 45.393 64.7209 45.4787 64.9635 45.5358C65.2062 45.5929 65.4346 45.6642 65.6202 45.7356C65.8057 45.807 66.0198 45.9212 66.2482 46.0782C66.4766 46.2352 66.5908 46.4351 66.5908 46.7063C66.5908 47.7769 66.6194 48.6476 66.6765 49.3185C66.7336 49.9894 66.8192 50.5604 66.9334 51.0457C67.0476 51.5311 67.1618 51.945 67.276 52.3019C67.3902 52.673 67.5044 53.0584 67.6186 53.4724C67.69 53.8578 67.6757 54.1861 67.5615 54.4431C67.4473 54.7143 67.1618 54.7428 66.705 54.5573C65.8628 54.2575 65.2347 53.6437 64.835 52.7158C64.4354 51.788 64.1356 50.9601 63.95 50.1893C63.9072 50.0322 63.8216 49.7753 63.6645 49.3899C63.5075 49.0045 63.4219 48.7333 63.3791 48.5905C63.0793 48.5191 62.7081 48.6191 62.2942 48.9045C61.8802 49.19 61.4948 49.5897 61.1808 50.0751C60.8525 50.5747 60.6383 51.1456 60.5527 51.8023C60.4528 52.4589 60.5812 53.1013 60.9238 53.7579C61.0808 53.9863 61.295 54.2718 61.5805 54.5858C61.8659 54.9141 62.1514 55.2424 62.4369 55.585C62.7224 55.9276 63.0079 56.2702 63.2934 56.5842C63.5789 56.8983 63.8216 57.1695 64.0071 57.3551C64.2355 57.5835 64.3925 57.7119 64.4639 57.7262C64.5353 57.7405 64.7351 57.6977 65.0349 57.5835C65.4203 57.3979 66.0056 57.141 66.7907 56.8412C67.5758 56.5414 68.4037 56.2274 69.2602 55.9276C70.1166 55.6279 70.9446 55.3709 71.7297 55.1568C72.5148 54.9427 73.1143 54.8427 73.5425 54.8427C73.8137 54.8427 73.9993 54.9427 74.1135 55.1282C74.2277 55.2424 74.2134 55.3995 74.0564 55.585C73.8994 55.7706 73.6995 55.9704 73.4569 56.156C73.2142 56.3416 72.943 56.5129 72.686 56.6699C72.4148 56.8269 72.2435 56.9126 72.1722 56.9554C71.5155 57.3408 70.7019 57.769 69.7027 58.2544C68.7035 58.7254 67.847 59.1965 67.119 59.6533C67.0476 59.7246 66.9049 59.8103 66.6907 59.8817C66.4766 59.953 66.3196 60.0387 66.2054 60.1101C66.6622 61.1378 66.9905 62.0371 67.1761 62.7794C67.3616 63.5217 67.433 64.2354 67.3759 64.9348C67.3188 65.62 67.1761 66.3195 66.9477 67.0332C66.7193 67.7469 66.4052 68.5606 66.0341 69.4741C65.4917 70.3592 64.9492 71.2014 64.3925 72.0007C63.8358 72.8001 63.222 73.5281 62.5226 74.1847C61.8374 74.8414 61.0808 75.3553 60.2815 75.7264C59.4821 76.1118 58.5971 76.2974 57.6407 76.2974C57.0983 76.2974 56.5844 76.226 56.0848 76.0975C55.5852 75.9691 55.1712 75.6836 54.8286 75.2696C53.9436 74.3132 53.4582 73.2712 53.344 72.1435C53.2299 71.0158 53.3298 69.9024 53.6295 68.789C53.8579 68.1038 54.1434 67.4757 54.486 66.8905C55.3282 65.4345 56.2561 64.2068 57.2695 63.1934C58.2973 62.1941 59.3536 61.2235 60.467 60.3099ZM62.4227 62.8936C61.9944 63.3218 61.4234 63.9214 60.6954 64.7065C59.9674 65.4916 59.2965 66.348 58.6542 67.2616C58.0261 68.1752 57.5122 69.0887 57.1125 69.988C56.7128 70.8873 56.6129 71.6582 56.7985 72.3148C57.5693 71.9722 58.3544 71.4012 59.1538 70.6161C59.9532 69.831 60.6669 68.9745 61.2807 68.0324C61.8945 67.0903 62.3227 66.1625 62.5654 65.2489C62.8081 64.321 62.7652 63.5359 62.4227 62.8936Z" fill="#292F36" stroke="white" stroke-miterlimit="10"/>
<path d="M51.1599 83.5489C33.3025 83.5489 18.771 69.0174 18.771 51.16C18.771 33.3025 33.3025 18.7711 51.1599 18.7711C69.0174 18.7711 83.5488 33.3025 83.5488 51.16C83.5488 69.0174 69.0174 83.5489 51.1599 83.5489ZM51.1599 20.1985C34.0876 20.1985 20.1984 34.0876 20.1984 51.16C20.1984 68.2323 34.0876 82.1214 51.1599 82.1214C68.2323 82.1214 82.1214 68.2323 82.1214 51.16C82.1214 34.0876 68.2323 20.1985 51.1599 20.1985Z" fill="#292F36"/>
</svg>
