<svg width="145" height="45" viewBox="0 0 145 45" fill="none" xmlns="http://www.w3.org/2000/svg">
<path d="M20.2413 8.82893L21.3118 8.60054C21.5831 8.60054 21.8115 8.65764 21.9685 8.77184C22.1255 8.88603 22.2112 9.00023 22.2112 9.10015C22.2112 9.20007 22.1826 9.35709 22.1398 9.54266C22.097 9.72823 21.6973 11.641 20.955 15.2525C20.2127 18.8639 19.6703 21.5618 19.3277 23.3319C20.9835 21.0765 22.9249 18.3072 25.1374 15.0098C27.35 11.7124 28.649 9.52839 29.0201 8.44352C29.1343 8.10093 29.2913 7.84399 29.4769 7.65842C29.6625 7.47285 29.8338 7.35866 29.9765 7.33011C30.1192 7.30156 30.3476 7.27301 30.6474 7.27301C30.9472 7.27301 31.304 7.34438 31.718 7.47286C32.132 7.60133 32.3461 7.81544 32.3461 8.12948C32.3461 8.70046 31.4896 10.3706 29.7909 13.1113C28.0923 15.852 26.1367 18.764 23.9384 21.8473C21.7401 24.9306 19.913 27.3716 18.4427 29.1701C18.1857 29.4842 17.8574 29.6555 17.4863 29.6555C17.1151 29.6555 16.7155 29.5841 16.3015 29.4556C15.8875 29.3272 15.6734 29.0988 15.6734 28.7562C15.6734 27.6856 16.6155 22.5182 18.4998 13.2826C16.8867 15.3667 14.9311 18.2787 12.6329 22.0043C10.2348 25.8585 8.87874 28.2566 8.5647 29.1701C8.39341 29.7269 8.19357 30.0552 7.96517 30.1408C7.80815 30.2122 7.63685 30.2407 7.46556 30.2407L6.30932 30.3692C6.08093 30.3692 5.88108 30.3121 5.68124 30.1836C5.49567 30.0552 5.39575 29.9267 5.39575 29.784C5.39575 29.3985 5.93819 28.228 7.00878 26.2867C8.07937 24.3454 9.3498 22.2327 10.7915 19.9488C12.2333 17.6649 13.7321 15.4523 15.3023 13.2969C16.8725 11.1414 18.0858 9.68541 18.9423 8.95741C19.1136 8.80039 19.3134 8.72901 19.5418 8.72901L20.2413 8.82893Z" fill="#292F36"/>
<path d="M37.3993 18.5072C38.1416 18.5072 38.5127 18.7642 38.5127 19.2638C38.5127 19.535 38.4556 19.7348 38.3272 19.8633C38.1987 19.9918 37.9275 20.4057 37.5135 21.1337C37.0996 21.8475 36.6428 22.761 36.1432 23.8887C35.6435 25.0021 35.3152 25.9585 35.1725 26.7436C35.144 26.8435 35.1297 26.972 35.1297 27.1576C35.1297 27.7 35.2724 27.957 35.5722 27.957C35.872 27.957 36.2145 27.8142 36.6142 27.543C37.0139 27.2575 37.3708 26.972 37.6848 26.6437C37.9988 26.3297 38.2986 26.0013 38.5984 25.673C38.8981 25.3447 39.0695 25.1449 39.1266 25.1021C39.1837 25.0592 39.2693 25.0307 39.3835 25.0307C39.5691 25.0307 39.6833 25.1734 39.7261 25.4589C39.7689 25.7444 39.7832 26.0299 39.7832 26.3439C39.7832 26.658 39.7546 26.8578 39.6975 26.972C39.412 27.5287 38.7982 28.1996 37.8276 28.9847C36.8712 29.7698 35.9862 30.1552 35.2011 30.1552C34.416 30.1552 33.8307 29.9126 33.4738 29.4415C33.117 28.9704 32.9171 28.428 32.9171 27.857C32.9171 27.2718 33.0171 26.7722 33.2169 26.3297C32.4032 27.386 31.4754 28.271 30.4333 29.0133C29.377 29.7413 28.5348 30.1124 27.8639 30.1124C27.193 30.1124 26.6649 29.9126 26.2366 29.5129C25.6942 29.0133 25.4373 28.3281 25.4373 27.4431C25.4373 26.5581 25.6371 25.673 26.0368 24.7737C26.4365 23.8887 26.9504 23.0608 27.5927 22.3328C28.2351 21.5905 28.9488 20.9196 29.7196 20.3201C31.3326 19.0496 32.8315 18.4216 34.2018 18.4216C34.73 18.4216 35.1582 18.5072 35.4865 18.6785C35.8149 18.8498 36.029 19.0782 36.1146 19.3351C36.343 18.9783 36.5429 18.7642 36.7142 18.6642C36.8426 18.55 37.0853 18.5072 37.3993 18.5072ZM35.458 20.1345C33.7879 20.1345 32.0606 21.0624 30.2763 22.918C29.6482 23.5889 29.063 24.3741 28.5206 25.3019C27.9781 26.2297 27.7212 26.8578 27.7212 27.2004C27.7212 27.543 27.8211 27.7143 28.021 27.7143C28.2922 27.7143 29.0487 27.1719 30.3049 26.1013C31.561 25.0307 32.389 24.2313 32.7887 23.7174C33.2454 23.1464 34.1305 21.9474 35.458 20.1345Z" fill="#292F36"/>
<path d="M48.505 10.7703L49.1045 10.913C49.1901 10.913 49.2758 10.9558 49.3329 11.0415C49.4043 11.1271 49.4328 11.2128 49.4328 11.2841C49.4328 11.3555 49.3329 11.5696 49.1188 11.9122C48.9047 12.2548 48.6763 12.6402 48.3908 13.0685C48.1053 13.4967 47.9625 13.7394 47.9483 13.7822C48.7048 13.7251 49.2472 13.6965 49.5613 13.6965C49.8753 13.6965 50.0894 13.7251 50.2179 13.7679C50.3321 13.8107 50.4748 13.9392 50.6176 14.1391C50.7746 14.3389 50.9031 14.4959 51.0316 14.5958C51.16 14.6958 51.2171 14.8528 51.2171 15.0526C51.2171 15.2525 51.0887 15.438 50.846 15.5665C50.6033 15.7093 50.3321 15.7949 50.0466 15.8235C47.777 16.0518 46.5351 16.166 46.3067 16.1803C45.5216 17.3937 44.4082 19.2779 42.995 21.833C41.5818 24.3882 40.8253 26.0012 40.7396 26.6435C40.6968 26.9433 40.6825 27.1717 40.6825 27.3573C40.6825 27.7427 40.8824 27.9283 41.2821 27.9283C41.6817 27.9283 42.1242 27.7712 42.6096 27.4715C43.0949 27.1574 43.5517 26.8291 43.9514 26.4723C45.0505 25.5016 45.6358 25.002 45.7072 25.002C45.9641 25.002 46.0926 25.4445 46.0926 26.3152C46.0926 26.7863 45.8785 27.2145 45.4359 27.5999C44.451 28.4421 43.6231 29.0845 42.9522 29.5127C42.2813 29.941 41.6104 30.1551 40.9252 30.1551C40.7824 30.1551 40.6397 30.1408 40.5112 30.1123C39.7261 29.9695 39.1551 29.684 38.7983 29.2558C38.4271 28.8276 38.2559 28.2566 38.2559 27.5428C38.2559 26.8291 38.47 25.9441 38.8982 24.9163C39.3264 23.8886 39.8546 22.7894 40.497 21.6332C41.5533 19.7347 42.6096 17.9646 43.6516 16.3088L43.0949 16.3802C41.9672 16.5086 41.3106 16.5657 41.125 16.5657H40.9966C40.7111 16.5657 40.4399 16.5086 40.1829 16.3944C39.926 16.2802 39.7832 16.1375 39.7832 15.9805C39.7832 15.8092 39.8546 15.6522 39.9974 15.4951C40.1401 15.3381 40.2257 15.2096 40.2543 15.124C40.3257 14.9099 40.5826 14.6672 41.0251 14.4103C41.4676 14.1533 41.7959 14.0106 42.0243 13.9963C42.2527 13.982 42.4668 13.9678 42.681 13.9535C42.8951 13.9392 43.1235 13.9392 43.3804 13.9249C43.6374 13.9107 43.8372 13.9107 43.9799 13.8964L45.2932 13.8393C46.1068 12.6117 46.6778 11.8123 46.9776 11.4697C47.2916 11.1129 47.4629 10.9273 47.5058 10.8987C47.5486 10.8702 47.6485 10.8416 47.8055 10.8416L48.505 10.7703Z" fill="#292F36"/>
<path d="M57.2836 25.0306C57.4692 25.0306 57.5834 25.1734 57.6262 25.4589C57.669 25.7444 57.6833 26.0298 57.6833 26.3439C57.6833 26.6579 57.6547 26.8578 57.5976 26.972C57.3121 27.5144 56.6984 28.1853 55.742 28.9704C54.7856 29.7555 53.872 30.1552 53.0155 30.1552C52.4874 30.1552 52.002 29.9982 51.5452 29.6841C51.1027 29.3701 50.8743 28.8134 50.8743 28.0283C50.8743 27.2432 51.0885 26.4581 51.5024 25.7015C49.0758 28.742 47.1915 30.2551 45.8069 30.2551C45.2644 30.2551 44.8219 30.0553 44.4794 29.6699C44.1368 29.2844 43.9797 28.8848 43.9797 28.4565C43.9797 28.0426 44.0368 27.6143 44.151 27.1718C44.2652 26.7293 44.3937 26.3296 44.5222 25.9728C44.6506 25.6159 44.8505 25.1877 45.1074 24.6738C45.3644 24.1599 45.5642 23.7887 45.6784 23.5461C45.7926 23.3034 46.0067 22.9608 46.2922 22.4898C46.5777 22.0187 46.9346 21.3763 47.3913 20.577C47.8481 19.7776 48.2193 19.1781 48.519 18.7927C48.8188 18.4072 49.1043 18.2074 49.3898 18.2074C49.6753 18.2074 49.9179 18.3216 50.1321 18.55C50.3462 18.7784 50.4604 18.9782 50.4604 19.121C50.4604 19.2637 50.1321 19.9203 49.4754 21.0909C47.5484 24.5881 46.5777 26.6151 46.5777 27.2004C46.5777 27.3431 46.6348 27.4145 46.7347 27.4145C47.2058 27.4145 48.3763 26.401 50.232 24.374C52.0877 22.347 53.1725 21.048 53.4723 20.4771C53.7721 19.9061 54.0433 19.4207 54.3288 19.0353C54.6 18.6499 54.8141 18.4072 54.9569 18.3216C55.3708 18.0504 55.9132 17.9076 56.5842 17.8791C56.6983 17.8791 56.7697 17.8791 56.8268 17.8934C56.8839 17.9076 56.9553 17.9933 57.0267 18.136C57.098 18.2788 57.1409 18.4072 57.1409 18.5072C57.0552 18.7784 56.6698 19.5064 55.9703 20.6912C55.2852 21.876 54.8998 22.5469 54.8284 22.6896C53.6722 25.0735 53.1012 26.6294 53.1012 27.3431C53.1012 27.7571 53.2582 27.9569 53.5722 27.9569C54.1432 27.8855 54.8284 27.4288 55.6278 26.6008C55.9275 26.3011 56.213 25.987 56.4985 25.673C56.784 25.3589 56.9696 25.1734 57.0267 25.1306C57.098 25.0592 57.1837 25.0306 57.2836 25.0306Z" fill="#292F36"/>
<path d="M61.5232 21.6476C63.8214 19.0353 65.7913 17.7221 67.4044 17.7221C67.804 17.7221 68.1324 17.8363 68.3893 18.0789C68.6462 18.3216 68.7747 18.6214 68.7747 19.0068C68.7747 19.3922 68.5035 20.0203 67.9611 20.9196C67.4186 21.8046 66.919 22.5611 66.4622 23.175C66.2196 23.489 65.9483 23.646 65.6343 23.646C65.3345 23.646 65.0919 23.5318 64.9206 23.3034C64.7493 23.075 64.6637 22.8181 64.6637 22.5183C64.6637 21.8474 65.0205 21.0766 65.7485 20.2344L65.72 20.2059C65.3916 20.2344 64.6065 20.8768 63.3218 22.1044C62.0514 23.3462 60.9665 24.4597 60.0672 25.4303C59.1822 26.4153 58.2115 27.6001 57.1552 29.0132C56.8555 29.4272 56.5985 29.6413 56.3844 29.6413C56.1703 29.6413 55.8991 29.5699 55.5565 29.4415C55.2139 29.313 54.9998 29.2131 54.9284 29.156C54.857 29.0989 54.8142 28.999 54.8142 28.8562C54.8142 28.7277 54.857 28.5565 54.9284 28.3852C54.9998 28.1996 55.1568 27.9426 55.3566 27.6143C55.5565 27.286 55.8848 26.7436 56.313 26.0013C56.7413 25.259 57.3979 24.1314 58.2972 22.6325C59.1965 21.1337 59.7247 20.2201 59.9102 19.9061C60.2814 19.2637 60.5811 18.7927 60.8238 18.5072C61.2663 17.9505 62.0086 17.6793 63.0506 17.6793C63.279 17.6793 63.4075 17.822 63.4075 18.1218C63.4075 18.5786 62.9792 19.4493 62.1371 20.7055L61.5232 21.6476Z" fill="#292F36"/>
<path d="M77.2681 18.6784C77.2681 19.3208 77.0112 19.8918 76.483 20.3771C75.9549 20.8624 75.3696 21.1051 74.6987 21.1051C74.4846 21.1051 74.3419 21.048 74.2705 20.9481C74.1991 20.8482 74.1705 20.7054 74.1705 20.5484C74.1705 20.3914 74.1848 20.2201 74.2277 20.063C73.8708 20.1772 73.4854 20.3628 73.0571 20.6055C72.6289 20.8481 72.1007 21.205 71.4727 21.6903C70.8446 22.1757 70.5306 22.5183 70.5306 22.7609C70.5306 22.8323 70.6447 22.8751 70.8731 22.8751C71.1015 22.8751 71.4584 22.7895 71.9295 22.6325C72.4005 22.4754 72.7431 22.3898 72.9287 22.3898C73.1142 22.3898 73.2427 22.4041 73.2998 22.4183C73.4283 22.4897 73.5568 22.6325 73.7138 22.8609C73.8565 23.0893 73.9279 23.2748 73.9279 23.4033C73.9279 23.5318 73.7994 23.7031 73.5425 23.9172C73.2855 24.1313 73 24.2883 72.686 24.4025C72.3577 24.5167 72.1436 24.6024 72.0437 24.6594C69.9881 25.8157 68.9603 26.6008 68.9603 27.029C68.9603 27.7856 69.6027 28.171 70.9017 28.171C71.7296 28.171 72.5718 27.914 73.3997 27.3859C74.1135 26.9434 74.7558 26.4866 75.3268 26.0155C75.8978 25.5587 76.2546 25.2733 76.4117 25.1591C76.5687 25.0449 76.6829 25.002 76.7543 25.002C77.0112 25.002 77.1397 25.2875 77.1397 25.8585C77.1397 26.4295 77.1111 26.8006 77.0397 26.9719C76.9684 27.1575 76.7828 27.3716 76.4545 27.6428C74.3704 29.3415 72.3862 30.198 70.5306 30.198C69.5313 30.198 68.7462 30.0552 68.1467 29.784C67.0476 29.2844 66.5051 28.5279 66.5051 27.5001C66.5051 26.1583 67.433 25.1305 69.3029 24.4453C68.9318 24.274 68.6891 24.0742 68.5892 23.803C68.475 23.546 68.4322 23.1321 68.4322 22.5611C68.4322 21.9901 68.7034 21.3906 69.2316 20.7482C69.7597 20.1059 70.4163 19.5777 71.1872 19.178C72.9001 18.2502 74.4418 17.7934 75.7836 17.7934C76.1119 17.7934 76.4259 17.8648 76.7685 18.0218C77.1111 18.1788 77.2681 18.3929 77.2681 18.6784Z" fill="#292F36"/>
<path d="M110.585 8.74338H110.77C110.828 8.74338 110.87 8.74338 110.885 8.75765C110.899 8.77192 110.913 8.77193 110.942 8.7862C110.97 8.7862 110.985 8.80047 111.013 8.82902C111.056 8.87185 111.127 8.91467 111.213 8.95749C111.327 9.04314 111.384 9.14306 111.384 9.25726C111.384 9.37146 111.27 9.61412 111.042 9.98526C110.813 10.3564 110.228 11.2557 109.272 12.7117C107.088 16.0519 105.132 19.1638 103.405 22.0187C100.421 26.9862 98.9083 29.4843 98.8798 29.5128C98.8512 29.5414 98.8369 29.5699 98.8226 29.5985C98.8084 29.6556 98.7798 29.6841 98.7084 29.6841L98.5086 29.6413L98.1089 29.7412L97.8805 29.6984L97.6379 29.7412H97.5522L96.7386 29.8554C96.2532 29.8554 96.0106 29.6841 96.0106 29.3558C96.0106 29.2131 96.0534 29.0418 96.139 28.8419C96.4388 28.1282 97.9662 25.5445 100.707 21.0623C98.9083 21.1051 97.124 21.1337 95.3682 21.1337L92.2278 21.1194C91.7139 21.9473 91.0002 23.1178 90.1009 24.6452C88.1596 27.9712 87.1318 29.6413 87.0033 29.6698C86.8749 29.6984 86.7749 29.7269 86.6893 29.7269C86.6036 29.7269 86.5323 29.6841 86.4752 29.5842C86.4038 29.4986 86.361 29.4414 86.3324 29.4414C86.3039 29.4414 86.261 29.4557 86.1754 29.4985C86.104 29.5414 85.9898 29.5556 85.8328 29.5556L85.4902 29.5414L85.3618 29.4557C85.3475 29.4557 85.3332 29.47 85.3189 29.4985C85.3047 29.5271 85.2618 29.5414 85.2047 29.5414C84.7908 29.5414 84.5767 29.3701 84.5767 29.0132C84.5767 28.7848 84.6623 28.4708 84.8193 28.0854C84.9906 27.7 85.2047 27.286 85.476 26.8435C85.7472 26.401 86.4323 25.3304 87.56 23.6603C88.6734 21.9901 89.2302 21.1479 89.2302 21.1337C89.0446 21.1194 88.8305 21.1194 88.5878 21.1051C88.0882 21.1051 87.7456 21.0908 87.5315 21.048C86.9748 20.9481 86.5894 20.4913 86.3895 19.6777C86.2753 19.278 86.2325 19.021 86.2468 18.8926C86.2468 18.6356 86.361 18.4929 86.5894 18.4929L86.9748 18.5928C87.1746 18.6071 87.6314 18.6214 88.3737 18.6642C89.116 18.707 89.6441 18.7213 89.9724 18.7213L90.8004 18.6927C92.0708 16.7086 93.5839 14.4532 95.3539 11.9409C94.0692 12.9972 92.6418 13.5253 91.0716 13.5253C90.3293 13.5253 89.6869 13.354 89.1588 12.9972C88.6163 12.6403 88.3594 12.1835 88.3594 11.6411C88.3594 11.0987 88.5593 10.6704 88.9732 10.3421C89.3872 10.0281 89.7726 9.87106 90.1437 9.87106C90.5149 9.87106 90.7004 9.92816 90.7004 10.0424C90.7004 10.0852 90.6433 10.128 90.5434 10.1708C90.4435 10.2279 90.3864 10.2708 90.3864 10.3136C90.3864 10.4706 90.5577 10.6133 90.9003 10.7275C91.2429 10.8417 91.6283 10.9131 92.0565 10.9131C92.4847 10.9131 92.9986 10.7846 93.6267 10.542C94.2548 10.2993 94.8971 9.97099 95.568 9.58557C96.5102 9.04314 97.2524 8.58635 97.7949 8.22949C98.1089 8.07247 98.3944 8.0011 98.6799 8.0011C98.9654 8.0011 99.151 8.02965 99.2794 8.10102C99.4079 8.15812 99.4935 8.22949 99.5506 8.28659C99.6077 8.34369 99.6791 8.42934 99.7362 8.52926C99.8076 8.62918 99.8647 8.71483 99.9361 8.75765C99.9932 8.81475 100.036 8.87185 100.036 8.94322C100.036 9.01459 99.9932 9.11451 99.9218 9.27153C99.8504 9.41428 99.4793 10.0138 98.8084 11.0559C98.1375 12.0979 97.2667 13.4254 96.2104 15.0384C95.1541 16.6515 94.3833 17.8363 93.8979 18.6071C96.5102 18.6071 99.3223 18.5643 102.348 18.4643C106.031 12.6546 107.973 9.61412 108.172 9.32863C108.372 9.04314 108.558 8.85757 108.729 8.77192C108.9 8.68628 109.1 8.64345 109.343 8.64345L110.585 8.74338Z" fill="#292F36"/>
<path d="M115.353 18.4786C115.652 18.4786 115.952 18.6071 116.252 18.8783C116.566 19.1495 116.709 19.5492 116.709 20.0916C116.709 20.634 116.523 21.3335 116.138 22.2042C115.752 23.0607 115.238 23.9457 114.567 24.845C113.911 25.7301 113.169 26.5723 112.383 27.3574C111.584 28.1425 110.728 28.7848 109.814 29.2844C108.886 29.784 108.058 30.041 107.302 30.041C106.545 30.041 105.946 29.7983 105.489 29.3272C105.032 28.8562 104.804 28.1995 104.804 27.3574C104.804 26.5152 105.018 25.573 105.432 24.5595C105.846 23.5318 106.374 22.6325 107.031 21.8474C107.687 21.0623 108.387 20.3628 109.157 19.7347C110.742 18.45 112.141 17.822 113.34 17.822C113.882 17.822 114.282 17.9504 114.553 18.2217C114.653 18.3073 114.696 18.3929 114.696 18.45V18.5357C114.853 18.4786 115.067 18.4786 115.353 18.4786ZM113.882 20.4199H113.782C113.44 20.4199 113.268 20.1773 113.268 19.6777C112.555 19.906 111.813 20.32 111.027 20.9053C110.242 21.4905 109.543 22.19 108.929 22.9893C107.673 24.5881 107.045 25.9442 107.031 27.0433C107.031 27.5857 107.23 27.857 107.63 27.857C108.03 27.857 108.629 27.5857 109.414 27.0719C110.199 26.558 110.985 25.8014 111.77 24.8165C112.541 23.8458 113.126 22.9893 113.511 22.2756C113.897 21.5619 114.096 21.0766 114.096 20.8053C114.082 20.5484 114.011 20.4199 113.882 20.4199Z" fill="#292F36"/>
<path d="M116.395 29.7126L115.681 29.6841H115.424C115.324 29.6555 115.224 29.5984 115.11 29.5128C114.996 29.4271 114.91 29.3558 114.853 29.3272C114.796 29.2987 114.767 29.213 114.767 29.1131C114.767 29.0132 114.81 28.8276 114.882 28.5849C116.78 24.4025 118.621 21.048 120.406 18.5499C120.606 18.2787 120.92 18.0646 121.348 17.9218C121.776 17.7791 122.204 17.7077 122.618 17.7077C122.861 17.7077 122.989 17.8933 122.989 18.2787C122.989 18.3929 122.947 18.5357 122.875 18.707C122.804 18.8925 122.604 19.178 122.29 19.592C121.976 20.0059 121.605 20.477 121.177 20.9909C120.748 21.5048 120.506 21.8188 120.449 21.9044C121.79 20.5198 122.989 19.4921 124.074 18.8069C125.159 18.136 125.93 17.7934 126.415 17.7934C126.901 17.7934 127.272 17.9361 127.529 18.2073C127.786 18.4786 127.914 18.7783 127.914 19.0924C127.914 19.4064 127.886 19.6776 127.843 19.8775C127.8 20.0916 127.714 20.3057 127.6 20.5341C127.486 20.7625 127.386 20.9623 127.3 21.1193C127.215 21.2764 127.072 21.4905 126.886 21.7474C126.687 22.0044 126.558 22.1899 126.487 22.2899C126.415 22.3898 126.258 22.5753 126.03 22.8466C125.802 23.1178 125.673 23.2748 125.659 23.3033C125.93 23.0321 126.315 22.6324 126.801 22.09C127.286 21.5476 127.7 21.1051 128.043 20.7482C128.385 20.3913 128.799 19.9774 129.313 19.5206C129.827 19.0638 130.298 18.6927 130.726 18.4215C131.783 17.7648 132.853 17.4222 133.938 17.4222C134.309 17.4222 134.623 17.5364 134.88 17.7791C135.137 18.0218 135.266 18.293 135.266 18.6213C135.266 18.9496 134.866 19.7347 134.081 20.9623C133.296 22.1899 132.496 23.4318 131.711 24.6737C130.926 25.9156 130.526 26.7007 130.526 27.029C130.526 27.4715 130.612 27.7427 130.769 27.8284C130.94 27.914 131.14 27.9426 131.369 27.9283C131.597 27.914 131.94 27.757 132.354 27.4715C132.782 27.186 133.153 26.9005 133.481 26.5865C134.024 26.1012 134.509 25.6301 134.98 25.1733C135.08 25.0877 135.18 25.0448 135.308 25.0448C135.494 25.0448 135.608 25.1876 135.651 25.4731C135.694 25.7586 135.708 26.0441 135.708 26.3581C135.708 26.6721 135.68 26.872 135.622 26.9862C135.337 27.5286 134.709 28.1995 133.752 28.9989C132.782 29.784 131.854 30.1837 130.969 30.1837C130.855 30.1837 130.783 30.1837 130.741 30.1694C129.741 30.0695 129.042 29.7983 128.656 29.3415C128.271 28.8847 128.085 28.3423 128.085 27.7285C128.085 27.1147 128.3 26.3438 128.728 25.4588C129.156 24.5738 129.613 23.7601 130.127 23.0464C130.641 22.3327 131.097 21.6761 131.526 21.0908C131.954 20.5055 132.168 20.1915 132.168 20.1487C132.168 20.1059 132.125 20.0773 132.054 20.0773C131.754 20.0773 131.083 20.5626 130.027 21.5476C128.242 23.2177 126.701 24.8307 125.402 26.3724C125.059 26.7863 124.246 27.8141 122.975 29.4842C122.832 29.6841 122.59 29.784 122.276 29.784C121.962 29.784 121.633 29.7269 121.291 29.5984C120.948 29.4699 120.777 29.3129 120.777 29.1274C120.777 29.0274 121.548 27.6571 123.104 25.0163C124.66 22.3755 125.43 20.9338 125.43 20.7054C125.43 20.4627 125.288 20.3485 125.002 20.3485C124.717 20.3485 124.117 20.7768 123.218 21.6332C120.748 23.9885 118.836 26.3438 117.48 28.6706C117.394 28.8133 117.223 29.0274 116.966 29.3129C116.709 29.5984 116.48 29.7126 116.395 29.7126Z" fill="#292F36"/>
<path d="M144.701 18.6784C144.701 19.3208 144.444 19.8918 143.916 20.3771C143.388 20.8624 142.802 21.1051 142.132 21.1051C141.917 21.1051 141.775 21.048 141.703 20.9481C141.632 20.8482 141.603 20.7054 141.603 20.5484C141.603 20.3914 141.618 20.2201 141.66 20.063C141.304 20.1772 140.918 20.3628 140.49 20.6055C140.062 20.8481 139.534 21.205 138.906 21.6903C138.277 22.1757 137.963 22.5183 137.963 22.7609C137.963 22.8323 138.078 22.8751 138.306 22.8751C138.534 22.8751 138.891 22.7895 139.362 22.6325C139.833 22.4754 140.176 22.3898 140.362 22.3898C140.547 22.3898 140.676 22.4041 140.733 22.4183C140.861 22.4897 140.99 22.6325 141.147 22.8609C141.289 23.0893 141.361 23.2748 141.361 23.4033C141.361 23.5318 141.232 23.7031 140.975 23.9172C140.718 24.1313 140.433 24.2883 140.119 24.4025C139.791 24.5167 139.576 24.6024 139.476 24.6594C137.421 25.8157 136.393 26.6008 136.393 27.029C136.393 27.7856 137.036 28.171 138.335 28.171C139.162 28.171 140.005 27.914 140.833 27.3859C141.546 26.9434 142.189 26.4866 142.76 26.0155C143.331 25.5587 143.687 25.2733 143.845 25.1591C144.002 25.0449 144.116 25.002 144.187 25.002C144.444 25.002 144.573 25.2875 144.573 25.8585C144.573 26.4295 144.544 26.8006 144.473 26.9719C144.401 27.1575 144.216 27.3716 143.887 27.6428C141.803 29.3415 139.819 30.198 137.963 30.198C136.964 30.198 136.179 30.0552 135.58 29.784C134.48 29.2844 133.938 28.5279 133.938 27.5001C133.938 26.1583 134.866 25.1305 136.736 24.4453C136.365 24.274 136.122 24.0742 136.022 23.803C135.908 23.546 135.865 23.1321 135.865 22.5611C135.865 21.9901 136.136 21.3906 136.664 20.7482C137.193 20.1059 137.849 19.5777 138.62 19.178C140.333 18.2502 141.875 17.7934 143.216 17.7934C143.545 17.7934 143.859 17.8648 144.201 18.0218C144.544 18.1788 144.701 18.3929 144.701 18.6784Z" fill="#292F36"/>
<path d="M0 33.6666C3.7542 35.2368 7.57977 36.4502 11.4767 37.378C15.3451 38.3487 19.2849 39.0339 23.2247 39.4621C25.1946 39.7333 27.1787 39.7619 29.1343 39.9474C31.1185 39.9617 33.0884 40.1187 35.0583 40.0045L38.0131 39.9332C38.998 39.9189 39.983 39.7904 40.9679 39.7333C41.9529 39.6477 42.9378 39.6048 43.9085 39.4764L46.8347 39.0624C50.7602 38.6342 54.5715 37.7206 58.3686 36.6215C62.2084 35.5651 65.8342 34.1662 69.674 32.7102C73.5995 31.2685 77.8533 30.3264 82.1642 30.7832C84.2911 31.0544 86.4323 31.7396 88.1738 32.9957C89.9296 34.2376 91.1857 36.0077 91.9851 37.8633C90.786 36.2075 89.2872 34.8514 87.56 34.0092C85.8328 33.167 83.9343 32.8244 82.05 32.8815C78.2387 32.9386 74.4845 34.2091 70.9587 35.8078C67.3758 37.5779 63.4931 39.1766 59.5819 40.5041C55.6421 41.7746 51.5739 42.7881 47.4485 43.3019C39.2407 44.3868 30.833 44.4011 22.7251 42.7595C18.6568 42.0172 14.6885 40.861 10.8486 39.3907C7.03733 37.8633 3.31169 36.079 0 33.6666Z" fill="#292F36"/>
<path d="M136.507 9.89958C133.324 8.5435 130.084 7.48718 126.801 6.65926C123.532 5.78851 120.22 5.17471 116.894 4.74648C115.238 4.48953 113.554 4.43244 111.898 4.23259C110.228 4.18977 108.572 4.01847 106.902 4.08985C106.074 4.10412 105.232 4.10412 104.404 4.08985C103.576 4.08985 102.734 4.17549 101.906 4.20404C101.078 4.26114 100.236 4.27542 99.4079 4.36106L96.9242 4.66083C93.5982 4.93204 90.3722 5.61722 87.1461 6.45942C83.8773 7.24452 80.7797 8.35793 77.4823 9.47135C74.0992 10.599 70.4306 11.2842 66.7478 10.7703C64.9349 10.4706 63.1078 9.82821 61.6661 8.68624C60.1958 7.55856 59.1966 6.01691 58.5828 4.40388C59.5963 5.81706 60.8524 6.9733 62.2942 7.68703C63.7359 8.40076 65.3203 8.70052 66.9048 8.68624C70.1023 8.68624 73.2713 7.65848 76.2689 6.37377C79.3237 4.91777 82.6782 3.63306 86.0184 2.57675C89.3872 1.56325 92.8987 0.792428 96.4103 0.421291C103.419 -0.320985 110.585 -0.149691 117.451 1.47761C120.891 2.20561 124.246 3.31902 127.457 4.68938C130.683 6.08828 133.795 7.71558 136.507 9.89958Z" fill="#292F36"/>
</svg>
